<?xml version="1.0" encoding="UTF-8"?>
<svg id="uuid-9baf5680-b85a-4ebf-9370-faa50703cb9d" data-name="Layer 1" xmlns="http://www.w3.org/2000/svg" viewBox="0 0 552.4 608.6">
  <defs>
    <style>
      .uuid-3be2d6ff-838d-46b1-9478-e6a4ae9155aa {
        fill: #f26336;
        fill-rule: evenodd;
        stroke-width: 0px;
      }
    </style>
  </defs>
  <path class="uuid-3be2d6ff-838d-46b1-9478-e6a4ae9155aa" d="m211.32,272.97c49.69.57,80.52,10.28,91.95,28.56,61.68,17.7,98.21,79.94,85.09,142.19-13.71,61.68-73.11,102.79-136.49,93.65-84.52-14.83-155.9-70.81-190.17-149.62-36.54-97.07-14.27-206.71,57.1-281.53-13.7-6.28-20.56-9.13-20.56-9.13,19.42.57,28.56,1.14,28.56,1.14-9.14-14.85-13.7-22.27-13.7-22.27,4.56-4.57,7.42-6.86,7.42-6.86,15.42,9.14,22.85,13.7,22.85,13.7,15.42-13.7,23.41-19.99,23.41-19.99-38.84-9.13-63.39-14.27-73.1-16.56.57-2.86,1.71-4.57,1.71-4.57,60.54-.57,91.94,2.86,91.94,2.86C229.03,15.99,249.58,1.72,249.58,1.72,256.44.57,263.29,0,270.71,0c5.73,1.15,6.87,4.57,3.43,9.71-29.13,26.84-43.4,40.55-43.4,40.55,18.84,21.13,28.56,31.98,28.56,31.98-2.86,2.28-4,4-4,4-35.97-9.71-53.68-14.28-53.68-14.28-41.12,21.13-75.95,53.11-101.08,92.52,8.56-21.7,13.13-32.55,13.13-32.55-17.14,27.41-30.84,56.53-41.12,86.8-22.27,69.67-14.27,145.62,22.27,208.43,39.41,58.25,92.51,91.96,158.76,101.65,59.39,8.56,115.36-29.69,128.48-87.94,7.44-50.25-24.55-97.66-74.23-109.64,3.42,10.27,1.71,21.13-3.99,30.83-8.58-33.11-39.41-55.38-73.1-54.24-88.52-2.85-139.34-21.14-153.62-55.4-2.85-7.42-.57-15.99,4.57-21.7,5.71-5.71,14.27-8,21.7-5.71,38.83,6.28,79.38-9.14,121.63-46.83,23.41-25.69,54.26-42.83,88.51-49.69,8.01-29.69,30.28-53.67,58.82-63.96,19.99,21.71,27.98,51.97,22.27,80.52,22.84-32.55,59.4-53.11,99.37-55.96,7.42,31.41,4.56,63.96-8.58,93.09-13.69-7.43-29.69-12-45.11-13.14,131.34,49.69,149.62,260.97,42.26,362.63-62.25,57.68-146.77,85.09-230.71,74.82-84.52-10.29-159.9-56.54-206.73-127.35,45.12,57.09,108.51,95.93,179.89,110.21-88.51-21.7-162.18-81.1-201.59-162.76C7.46,388.89-.54,348.36.03,307.24c1.14,59.38,26.85,115.35,70.82,154.75C20.02,396.9-1.11,328.37,7.46,255.27c9.71-50.82,35.97-96.51,75.38-130.2-73.67,95.94-73.67,230.14.57,326.07,97.65,108.52,204.44,135.93,320.38,82.24,72.52-35.96,112.49-116.49,97.07-196.44-22.27-45.68-71.95-72.53-122.78-66.24,28.57-6.29,58.25-6.29,86.8,0-66.81-60.54-163.88-72.53-243.27-30.27-24.55,8-55.39,11.99-93.09,13.13-1.14-.57-3.42-1.14-4.56,0-1.71,1.14-2.86,2.85-2.86,4.57.58,1.71,1.15,3.42,2.86,3.99,20.56,9.14,49.69,13.13,87.37,10.85h0Z"/>
</svg>